<svg width="84" height="25" viewBox="0 0 84 25" xmlns="http://www.w3.org/2000/svg">
    <title>
        atlas_logo
    </title>
    <g fill-rule="nonzero" fill="none">
        <path d="M20.858 13.922a5.045 5.045 0 0 0-2.73-7.001 5.935 5.935 0 0 1-1.273 2.251 2.51 2.51 0 1 1-1.912.385A5.042 5.042 0 1 0 7.433 5.8a5.89 5.89 0 0 1 2.587.092 2.52 2.52 0 1 1 .984 1.372A3.976 3.976 0 0 0 8.52 6.61a5.042 5.042 0 0 0-1.724 9.77 3.07 3.07 0 1 1-1.942-.073 5.984 5.984 0 0 1-1.659-2.046 5.603 5.603 0 1 0 4.598-.204 2.52 2.52 0 1 1 3.247-2.418 2.55 2.55 0 0 1-1.556 2.333 6.547 6.547 0 0 1 1.774 1.903c.447-.29.845-.65 1.18-1.064a5.045 5.045 0 0 0 5.804 1.509 3.082 3.082 0 1 1-1.662 1.256 5.902 5.902 0 0 1-2.586-.492c-.211.4-.431 1.437-.431 2.176a5.603 5.603 0 1 0 7.296-5.337z" fill="#2451CA"/>
        <path d="M42.701 20.546a.698.698 0 0 1-.655-.484 74.787 74.787 0 0 0-.559-1.6 60.315 60.315 0 0 1-.718-2.109h-7.256c-.232.72-.468 1.428-.708 2.123-.184.532-.366 1.062-.545 1.589a.697.697 0 0 1-.65.481h-1.778a.718.718 0 0 1-.655-.963c.524-1.532 1.026-2.969 1.505-4.31.575-1.611 1.14-3.137 1.696-4.578a168.72 168.72 0 0 1 1.646-4.115 134.76 134.76 0 0 1 1.621-3.72.231.231 0 0 1 .21-.143h2.685a.231.231 0 0 1 .21.144 137.749 137.749 0 0 1 3.27 7.834c.554 1.44 1.124 2.966 1.71 4.578.486 1.341.992 2.778 1.519 4.31a.718.718 0 0 1-.656.963h-1.892zm-5.241-13.6a.342.342 0 0 0-.641 0c-.298.74-.625 1.585-.98 2.534a186.223 186.223 0 0 0-1.524 4.244h5.65c-.53-1.526-1.042-2.95-1.537-4.27-.357-.952-.68-1.788-.968-2.509zm29.893-.193c.992 0 1.826.129 2.503.386.623.22 1.18.592 1.624 1.08a4.1 4.1 0 0 1 .862 1.685c.18.71.267 1.44.26 2.174v7.558a.718.718 0 0 1-.575.71c-.408.077-.916.163-1.524.257a20.658 20.658 0 0 1-3.161.219 9.15 9.15 0 0 1-2.112-.231 4.395 4.395 0 0 1-1.648-.746 3.484 3.484 0 0 1-1.066-1.338 4.783 4.783 0 0 1-.384-2.031 4.043 4.043 0 0 1 .431-1.956c.282-.52.686-.964 1.177-1.293a4.994 4.994 0 0 1 1.724-.718 9.372 9.372 0 0 1 2.045-.219 8.96 8.96 0 0 1 2.204.283v-.521a4.174 4.174 0 0 0-.124-1.029 2.168 2.168 0 0 0-.431-.862 2.036 2.036 0 0 0-.817-.575 3.424 3.424 0 0 0-1.276-.205 10.92 10.92 0 0 0-1.908.153c-.251.046-.482.093-.693.144a.695.695 0 0 1-.84-.595L63.464 8a.718.718 0 0 1 .513-.815c.296-.076.645-.152 1.047-.229a12.57 12.57 0 0 1 2.33-.202zm.249 11.599c.705.018 1.411-.034 2.106-.154V14.75a6.454 6.454 0 0 0-1.759-.231c-.336 0-.672.026-1.005.077a3.045 3.045 0 0 0-.917.288c-.265.13-.492.328-.656.574a1.66 1.66 0 0 0-.249.939c0 .737.223 1.247.67 1.53.446.282 1.05.425 1.81.426v-.001zm-13.513.634a6.375 6.375 0 0 1-.248-1.128.152.152 0 0 0-.205-.128c-.222.082-.496.17-.821.263a5.3 5.3 0 0 1-1.45.18c-.793 0-1.355-.232-1.685-.695-.33-.462-.496-1.234-.496-2.314v-4.885h3.448V8.046a.348.348 0 0 0-.333-.36h-3.115v-3.35a.236.236 0 0 0-.231-.24l-2.535.391a.236.236 0 0 0-.231.24V15.19c-.01.798.064 1.596.221 2.379.125.64.387 1.245.769 1.774.38.502.89.889 1.474 1.12.62.256 1.392.385 2.316.386.76 0 1.407-.144 1.983-.244.372-.063 1.027-.244 1.436-.364a.19.19 0 0 0 .11-.275 4.829 4.829 0 0 1-.407-.98zm6.568-.883a.144.144 0 0 0-.174-.106 2.47 2.47 0 0 1-1.08.016 1.82 1.82 0 0 1-.606-.411 1.54 1.54 0 0 1-.31-.655 4.402 4.402 0 0 1-.086-.951V2.956a.236.236 0 0 0-.231-.24l-2.536.387a.236.236 0 0 0-.232.24v13.235a6.908 6.908 0 0 0 .212 1.787c.124.494.376.946.73 1.312.396.378.876.656 1.4.81.528.162 2.644.494 3.736-.182a.13.13 0 0 0 .034-.191 4.198 4.198 0 0 1-.682-1.377 5.89 5.89 0 0 1-.175-.634zm13.538 1.926a.35.35 0 0 0 .288.357c1.244.189 3.67.469 5.264.262 2.323-.302 4.31-1.562 4.007-4.53-.337-2.976-2.304-3.474-4.587-3.963-2.253-.43-2.28-1.427-1.881-2.023.21-.27.499-.467.826-.566.43-.145.882-.215 1.336-.205.64.023 1.276.104 1.901.241.247.048.475.099.683.152a.694.694 0 0 0 .862-.574l.175-1.084a.718.718 0 0 0-.506-.819c-.296-.08-.645-.162-1.047-.244a12.573 12.573 0 0 0-2.326-.241c-.992-.016-1.828.1-2.509.347a3.98 3.98 0 0 0-1.64 1.05 4.15 4.15 0 0 0-.892 1.672c-.557 1.819.499 4.23 2.618 4.656 2.12.427 4.03.22 3.928 2.05-.125 1.78-4.597 1.197-6.31.884a.122.122 0 0 0-.144.12l-.046 2.458z" fill="#0E0F22"/>
    </g>
</svg>
