<?xml version="1.0" encoding="utf-8"?>
<!-- Generator: Adobe Illustrator 21.0.0, SVG Export Plug-In . SVG Version: 6.00 Build 0)  -->
<svg version="1.1" id="Layer_1" xmlns="http://www.w3.org/2000/svg" xmlns:xlink="http://www.w3.org/1999/xlink" x="0px" y="0px"
	 viewBox="0 0 313.2 94.7" style="enable-background:new 0 0 313.2 94.7;" xml:space="preserve">
<style type="text/css">
	.st0{fill:#2C376D;}
	.st1{fill:#E25271;}
	.st2{fill:#5DA4E5;}
	.st3{fill:#50E3C2;}
	.st4{fill:#262733;}
</style>
<title>ILLUI_Logo_With_Empire</title>
<g>
	<g>
		<path class="st0" d="M89.2,33.5l-0.7-1.9l-0.9-2.3l-1.5-2.9c-0.6-1.2-1.3-2.4-2.1-3.5c-0.9-1.3-1.8-2.6-2.8-3.8
			c-0.5-0.7-1.1-1.4-1.8-2c-0.6-0.6-1.2-1.3-1.9-2c-3.1-2.8-6.5-5.2-10.2-7.2l-3.1-1.4c-0.5-0.2-1.1-0.5-1.6-0.6l-1.7-0.6
			c-4.8-1.5-9.8-2.2-14.8-2l-2,0.1c-0.7,0-1.3,0.1-2,0.2c-1.3,0.2-2.6,0.4-3.9,0.7l-3.9,1l-3.9,1.5C20.5,11.1,12.4,19.2,8.1,29.3
			c-2.1,4.8-3.2,10-3.4,15.3c-0.1,4.9,0.5,9.8,2,14.4c0.4,1,0.8,2.4,1.2,3.3l0.6,1.5c0.2,0.5,0.5,1,0.7,1.5
			c2.6,5.2,6.3,9.7,10.8,13.4c2.2,1.8,4.5,3.4,7,4.7c1.6,0.8,3.3,1.6,5,2.2l1.8,0.6l0.2,0.1c1.6,0.6,2.4,2.3,1.8,3.8
			c-0.6,1.6-2.3,2.4-3.8,1.8h-0.1L30,91.2c-1.9-0.8-3.8-1.6-5.6-2.6c-2.8-1.6-5.4-3.4-7.9-5.5c-5-4.2-9-9.5-11.9-15.4
			c-0.3-0.6-0.5-1.1-0.8-1.7l-0.7-1.8c-0.5-1.3-0.8-2.2-1.2-3.6C0.3,55.4-0.3,49.9,0,44.4c1-18.2,12.4-34.3,29.3-41.1l4.1-1.4l4.2-1
			c1.4-0.3,2.8-0.4,4.2-0.6c0.7-0.1,1.4-0.2,2.1-0.2L46,0c5.4-0.1,10.7,0.8,15.8,2.5l1.8,0.6c0.6,0.2,1.2,0.4,1.7,0.7l3.3,1.6
			c3.9,2.1,7.5,4.8,10.7,7.8c0.7,0.7,1.4,1.5,2,2.2c0.6,0.7,1.2,1.4,1.8,2.1c1,1.3,2,2.7,2.9,4.1c0.8,1.2,1.5,2.4,2.1,3.7l1.5,3.1
			l0.8,2.3l0.7,1.9c0,0.6-0.4,1-0.9,1.1C89.8,33.9,89.4,33.8,89.2,33.5z"/>
		<path class="st1" d="M65.6,85.8l0.3-0.1l0.2-0.1h0.1h0l-0.1,0.1l0,0h0.1l0.5-0.2c0.4-0.2,0.9-0.4,1.5-0.7s1.1-0.5,1.7-0.9
			s1.4-0.7,2.1-1.2s1.5-0.9,2.2-1.5s1.5-1.1,2.3-1.7s1.5-1.3,2.2-1.9s1.4-1.4,2.1-2.1s1.3-1.4,1.9-2.2s1.1-1.5,1.6-2.1s1-1.4,1.4-2
			c0.8-1.3,1.4-2.4,1.8-3.2l0.6-1.2l0,0c0.2-0.5,0.8-0.7,1.3-0.5c0.5,0.2,0.7,0.8,0.5,1.3l0,0l-0.5,1.4c-0.3,0.9-0.8,2.1-1.6,3.5
			c-0.3,0.7-0.8,1.5-1.2,2.3s-1,1.6-1.5,2.5s-1.1,1.7-1.8,2.6s-1.3,1.7-2,2.5s-1.5,1.6-2.2,2.4S77.8,84,77,84.7s-1.5,1.3-2.3,1.9
			s-1.5,1.1-2.1,1.6s-1.4,0.9-1.9,1.2l-1.4,0.8l-0.5,0.3l-0.5,0.3L67.9,91c-1.4,0.7-3,0.2-3.8-1.1s-0.2-3,1.1-3.8l0,0l0.3-0.1
			L65.6,85.8z"/>
		<path class="st2" d="M20.1,33.1L20.1,33.1l0.6-0.5c-1.5,3.1-2.6,6.4-3,9.8c-0.4,3.4-0.3,6.8,0.5,10.2c0.2,0.8,0.4,1.6,0.7,2.5
			l0.1,0.3l0,0c0-0.1,0,0,0,0v0.1l0.1,0.2l0.2,0.6l0.5,1.2c0.3,0.8,0.7,1.6,1.1,2.3l0.6,1.1l0.7,1.1c1.8,2.9,4.1,5.4,6.7,7.5
			c5.4,4.2,12,6.4,18.8,6.3c3.4-0.1,6.7-0.7,9.8-1.9c0.8-0.3,1.6-0.6,2.4-1c0.7-0.4,1.5-0.7,2.1-1.1s1.4-0.9,2.1-1.4l2-1.5
			c5.1-4.4,8.5-10.3,9.7-16.9c0.6-3.2,0.6-6.6,0-9.8l-0.2-1.2l-0.3-1.2l-0.3-1.2L74.6,38l-0.2-0.6c-0.3-0.8-0.6-1.7-1-2.4l-1.1-2.1
			C65.7,21,51.7,15.5,38.9,19.7l0,0c-1.5,0.4-3.1-0.5-3.5-2c-0.4-1.4,0.4-2.9,1.8-3.4h0.1c3.7-1.1,7.6-1.6,11.5-1.4
			c11.8,0.6,22.4,7.3,27.9,17.7l1.3,2.7c0.4,0.9,0.6,1.7,0.9,2.5l0.2,0.6v0.1c0,0,0,0.1,0,0.1l0,0v0.2l0.1,0.4l0.3,1.4
			c0.1,0.5,0.2,0.9,0.3,1.4l0.2,1.4c0.6,3.8,0.5,7.6-0.3,11.3c-1.6,7.4-5.6,14.1-11.5,19l-2.3,1.7c-0.8,0.5-1.6,1-2.4,1.5
			s-1.7,0.9-2.6,1.3c-0.8,0.4-1.7,0.7-2.5,1c-3.5,1.3-7.3,1.9-11,1.9c-7.5-0.1-14.8-2.7-20.6-7.4c-2.9-2.4-5.3-5.2-7.2-8.4L18.9,62
			l-0.6-1.3c-0.4-0.8-0.8-1.7-1.1-2.5l-0.5-1.2l-0.2-0.6l-0.1-0.2v-0.1V56l0,0l-0.1-0.3c-0.3-0.9-0.5-1.8-0.7-2.7
			c-1.4-7.3-0.3-14.8,3.2-21.4l0.2-0.4l0.4-0.1l0,0c0.6-0.2,1.1,0.1,1.3,0.7C21,32.3,20.7,32.9,20.1,33.1z"/>
		<path class="st2" d="M48.2,87.9l2.4,2.4c0.4,0.4,0.4,1,0,1.4l-2.4,2.4c-0.4,0.4-1,0.4-1.4,0l-2.4-2.4c-0.4-0.4-0.4-1,0-1.4
			l2.4-2.4C47.2,87.5,47.9,87.5,48.2,87.9z"/>
		<path class="st2" d="M90.5,50.5L88,48.1c-0.4-0.4-0.4-1,0-1.4l2.4-2.4c0.4-0.4,1-0.4,1.4,0l2.4,2.4c0.4,0.4,0.4,1,0,1.4l-2.4,2.4
			C91.5,50.9,90.8,50.9,90.5,50.5z"/>
		<path class="st0" d="M24.6,25.6v-3.4c0-0.6,0.4-1,1-1H29c0.6,0,1,0.4,1,1v3.4c0,0.6-0.4,1-1,1h-3.4C25,26.6,24.6,26.2,24.6,25.6z"
			/>
		<circle class="st3" cx="47.3" cy="47.4" r="11.4"/>
	</g>
</g>
<g>
	<path class="st4" d="M155.4,58.8v6.2h-28.3V28.3h27.5v6.2h-19.8v9.1h15.6v5.9h-15.6v9.3L155.4,58.8L155.4,58.8z"/>
	<path class="st4" d="M203.3,39.2c2,2,3,4.7,2.8,7.5v18.2h-7.6V48.2c0.1-1.5-0.3-3-1.3-4.2c-0.9-0.9-2.2-1.4-3.5-1.4
		c-1.7,0-3.3,0.7-4.4,1.9c-1.2,1.5-1.8,3.5-1.7,5.4v14.9h-7.6V48.2c0.1-1.5-0.3-3-1.3-4.2c-0.9-0.9-2.2-1.4-3.5-1.4
		c-1.6,0-3.2,0.7-4.3,1.9c-1.3,1.6-2,3.7-1.8,5.8V65h-7.6V37.3h6.8l0.2,4.9c0.8-1.7,2.2-3.2,3.9-4.1c1.7-0.9,3.5-1.4,5.4-1.4
		c1.9,0,3.9,0.5,5.5,1.4c1.6,1,2.8,2.4,3.5,4.2c0.8-1.8,2.2-3.2,3.9-4.2c1.7-1,3.6-1.5,5.6-1.4C198.9,36.6,201.4,37.5,203.3,39.2z"
		/>
	<path class="st4" d="M239,40.4c2.3,3,3.4,6.8,3.2,10.6c0.2,3.8-0.9,7.6-3.2,10.7c-2.1,2.6-5.4,4-8.7,3.9c-1.8,0-3.6-0.4-5.2-1.4
		c-1.5-0.9-2.7-2.2-3.5-3.7v16.2H214V37.2h6.7l0.3,5.5c0.8-1.8,2-3.3,3.6-4.4c1.7-1.1,3.7-1.7,5.8-1.6
		C233.7,36.5,236.9,37.9,239,40.4z M232.8,57.4c2.3-3.9,2.3-8.8,0-12.8c-2.3-2.7-6.2-3-8.9-0.7c-0.2,0.1-0.3,0.3-0.4,0.4
		c-1.2,1.6-1.9,3.5-1.9,5.5v2.4c0,2,0.7,3.9,1.9,5.4c2.4,2.5,6.4,2.6,8.9,0.2C232.6,57.8,232.7,57.6,232.8,57.4z"/>
	<path class="st4" d="M248,29.1c0-2.7,1.6-4.1,4.7-4.1s4.7,1.4,4.7,4.1c0,2.7-1.6,4-4.7,4S248,31.8,248,29.1z M256.5,64.9h-7.6V37.2
		h7.6V64.9z"/>
	<path class="st4" d="M283.3,37.2l-0.9,6.7c-2.7-1.4-6-1-8.2,1.1c-1.4,1.5-2.1,3.5-1.9,5.5v14.4h-7.6V37.2h6.6l0.5,5.4
		c1.1-3.7,4.7-6.2,8.6-6C281.3,36.6,282.4,36.8,283.3,37.2z"/>
	<path class="st4" d="M313.2,53.9h-19.7c0.3,3.5,3.4,6.1,6.9,5.9c1.3,0,2.7-0.3,3.9-0.9c1-0.6,1.8-1.5,2.2-2.5l6.2,2.3
		c-0.8,2.2-2.4,4-4.5,5.1c-2.4,1.2-5.1,1.9-7.9,1.8c-7.2,0.7-13.7-4.5-14.4-11.8c-0.1-0.9-0.1-1.8,0-2.7c-0.2-3.9,1.1-7.7,3.7-10.6
		c2.7-2.7,6.5-4.1,10.3-3.9c3.7-0.2,7.3,1.1,9.9,3.7c2.5,3,3.7,6.8,3.5,10.6C313.3,51.9,313.3,52.9,313.2,53.9z M295.5,43.8
		c-1.2,1.3-1.9,3-2.1,4.8h12.9c-0.2-1.8-0.9-3.4-2.1-4.7c-1.2-1.1-2.7-1.7-4.3-1.6C298.3,42.2,296.7,42.7,295.5,43.8L295.5,43.8z"/>
</g>
</svg>
